<?xml version="1.0" encoding="UTF-8"?>
<!DOCTYPE svg PUBLIC "-//W3C//DTD SVG 1.1//EN" "http://www.w3.org/Graphics/SVG/1.1/DTD/svg11.dtd">
<!-- Creator: CorelDRAW -->
<svg xmlns="http://www.w3.org/2000/svg" xml:space="preserve" width="6.1675mm" height="6.1675mm" version="1.1" style="shape-rendering:geometricPrecision; text-rendering:geometricPrecision; image-rendering:optimizeQuality; fill-rule:evenodd; clip-rule:evenodd"
viewBox="0 0 48.3 48.3"
 xmlns:xlink="http://www.w3.org/1999/xlink"
 xmlns:xodm="http://www.corel.com/coreldraw/odm/2003">
 <defs>
  <style type="text/css">
   <![CDATA[
    .str0 {stroke:white;stroke-width:1.57;stroke-miterlimit:22.9256}
    .fil0 {fill:#2a7b3e}
    .fil1 {fill:white}
   ]]>
  </style>
 </defs>
 <g id="Слой_x0020_1">
  <metadata id="CorelCorpID_0Corel-Layer"/>
  <g id="_2485801749696">
   <circle class="fil0 str0" cx="24.15" cy="24.15" r="23.37"/>
   <path class="fil1 str0" d="M22.4 24.95c4.05,0 8.21,0 12.26,0l3.39 -8.64 -19.05 0 0.55 1.75 3.28 0 0.66 1.74 -3.18 0 0.65 1.64 3.29 0 0.65 1.86 -3.17 0 0.65 1.64zm0.33 5.24c-0.99,0.23 -1.87,1.1 -2.08,2.08 -0.22,1.64 0.88,2.96 2.08,3.17 2.08,0.33 3.39,-1.41 3.18,-3.17 -0.22,-1.42 -1.64,-2.29 -3.18,-2.08l0 0zm8.65 0c-0.99,0.23 -1.86,1.1 -1.97,2.08 -0.32,1.64 0.77,2.96 1.97,3.17 2.19,0.33 3.51,-1.41 3.17,-3.17 -0.22,-1.42 -1.64,-2.29 -3.17,-2.08l0 0zm3.17 -3.39l-13.14 0c-2.19,-4.59 -4.16,-9.4 -6.24,-13.99l-4.93 0 0 1.74 3.72 0c1.97,4.71 4.05,9.3 6.13,13.89l14.44 0c0.11,-0.44 0,-1.2 0,-1.64l0 0z"/>
  </g>
 </g>
</svg>
