<?xml version="1.0" encoding="UTF-8"?>
<!DOCTYPE svg PUBLIC "-//W3C//DTD SVG 1.1//EN" "http://www.w3.org/Graphics/SVG/1.1/DTD/svg11.dtd">
<!-- Creator: CorelDRAW -->
<svg xmlns="http://www.w3.org/2000/svg" xml:space="preserve" width="119.619mm" height="154.661mm" version="1.1" style="shape-rendering:geometricPrecision; text-rendering:geometricPrecision; image-rendering:optimizeQuality; fill-rule:evenodd; clip-rule:evenodd"
viewBox="0 0 11947.62 15447.62"
 xmlns:xlink="http://www.w3.org/1999/xlink"
 xmlns:xodm="http://www.corel.com/coreldraw/odm/2003">
 <defs>
  <style type="text/css">
   <![CDATA[
    .fil9 {fill:#0D65AF}
    .fil10 {fill:#1A4582}
    .fil8 {fill:#525050}
    .fil1 {fill:black;fill-rule:nonzero}
    .fil2 {fill:#07A181;fill-rule:nonzero}
    .fil7 {fill:#0D65AF;fill-rule:nonzero}
    .fil3 {fill:#146759;fill-rule:nonzero}
    .fil0 {fill:#525050;fill-rule:nonzero}
    .fil6 {fill:#909092;fill-rule:nonzero}
    .fil4 {fill:#A7B6CC;fill-rule:nonzero}
    .fil5 {fill:#AADBE1;fill-rule:nonzero}
   ]]>
  </style>
 </defs>
 <g id="Слой_x0020_1">
  <metadata id="CorelCorpID_0Corel-Layer"/>
  <g id="_1334038856816">
   <path class="fil0" d="M2092.39 13445.64c1304.26,71.71 5153.04,1711.78 5893.36,255.78 539.25,-1078.34 866.87,-5032.57 875.34,-6494.57 23.23,-2507.02 -642.62,-1907.15 -2400.39,-2689.38l511.65 1.79c470.01,190.43 1503.05,339.12 1811.42,760.47 143.38,195.57 198.78,501.91 241.18,1264.57 16.31,316.12 -35.87,2124.91 -78.23,2737.66 -140.12,1961.96 -482.34,4100 -733.32,4595.38 -153.21,293.29 -479.11,544.26 -831.07,642.02 -166.25,42.36 -329.17,55.4 -749.58,48.84 -255.98,-1.27 -4249.51,-884.64 -4540.37,-917.66l0 -204.92z"/>
   <g>
    <path class="fil0" d="M2186.53 13512.68c-43.71,-10.08 -63.87,20.21 -94.16,137.86 -36.98,151.33 -94.15,198.38 -305.96,262.3 -33.63,10.09 -74,117.66 -114.31,309.35 -50.45,228.63 -80.73,299.23 -127.79,312.7 -53.79,13.42 -60.52,36.98 -43.71,137.87 30.24,184.91 -73.99,601.84 -174.83,702.73 -77.34,77.34 -100.89,80.72 -319.43,63.91 -131.17,-10.08 -262.3,-40.37 -292.54,-67.26 -30.28,-26.9 -80.72,-57.18 -114.35,-67.26 -30.24,-13.47 -57.13,-40.36 -57.13,-60.53 0,-23.54 26.89,-20.16 80.68,13.42 70.6,47.1 87.42,47.1 121.05,6.74 20.21,-26.9 30.28,-63.87 16.81,-84.03 -10.08,-16.81 -3.35,-33.63 16.82,-33.63 23.54,0 33.63,-20.21 23.54,-47.09 -10.08,-26.9 -10.08,-57.13 3.35,-70.61 13.47,-13.42 23.55,-33.63 26.9,-43.71 6.73,-97.5 63.91,-262.26 100.89,-302.62 57.17,-53.79 60.52,-215.2 10.08,-265.64 -30.24,-30.23 -23.55,-107.57 16.81,-302.62 33.63,-144.55 70.61,-285.8 84.08,-312.7 16.81,-30.23 6.73,-67.25 -26.9,-94.15 -47.1,-36.98 -40.36,-40.32 47.05,-23.5 195.04,43.71 363.14,36.98 369.87,-16.82 79.71,-318.31 -732.78,-666.96 -712.85,-611.96 3.39,13.42 -10.08,26.89 -26.9,33.63 -20.16,6.68 -50.39,-43.72 -70.6,-114.36 -26.9,-94.15 -60.53,-137.86 -134.48,-161.37 -151.33,-57.17 -245.48,-117.7 -279.11,-181.56 -30.24,-57.18 -10.08,-144.6 211.86,-870.88 124.39,-406.84 215.19,-884.35 255.52,-1318.09 77.34,-847.32 322.81,-1687.92 712.85,-2474.72 147.94,-295.88 682.58,-1119.7 763.3,-1183.57 40.32,-26.95 53.8,-100.89 53.8,-292.54l0 -252.22 -184.97 -188.26c-1756.98,-1523.81 1464.4,-95.5 487.58,-363.14 -30.28,10.08 -73.99,60.52 -104.23,114.3 -26.9,53.8 -70.61,97.5 -97.54,97.5 -87.42,0 -94.16,164.75 -20.17,420.32 80.68,275.72 87.43,467.37 30.24,659.01 -26.9,90.81 -57.13,131.13 -100.84,131.13 -37.03,0 -77.34,40.36 -100.89,90.8 -23.5,53.79 -134.47,238.71 -245.44,413.59 -114.31,174.83 -245.49,386.64 -292.54,470.72 -100.88,178.23 -339.63,780.11 -410.24,1042.37 -30.23,100.88 -87.42,306 -134.47,453.95 -43.71,147.93 -104.23,403.45 -131.12,571.6 -47.09,262.26 -47.09,309.35 -3.39,353.06 40.36,40.32 63.91,30.24 181.56,-100.89 195.05,-215.19 279.12,-379.95 403.51,-796.88 161.37,-531.29 299.22,-880.95 554.79,-1388.69 265.64,-534.62 302.62,-585.07 393.42,-534.62 104.24,53.79 127.74,6.73 232.01,-430.41 110.93,-490.91 289.15,-1143.21 336.2,-1254.17 26.95,-63.91 23.55,-90.8 -16.76,-121.05 -50.45,-33.63 -50.45,-50.44 0,-164.75 3021.66,-945.66 -108.32,648.76 1139.86,1123l-97.54 104.24c139.25,96.84 302.1,286.78 232.01,470.72l-159.46 588.98 112.41 -575.51c-4.45,-137.35 -296.35,-349.71 -386.69,-349.71 -37.02,0 -195.04,181.61 -221.94,252.22 -50.44,134.47 -40.32,161.37 37.02,104.24 53.8,-37.03 94.11,-40.37 174.84,-13.47 381.07,117.98 365.46,289.28 289.15,564.87 -53.79,195.05 -97.49,383.34 -97.49,416.97 0,57.13 -20.21,60.53 -161.42,43.72 -1465.79,-171.13 -405.5,178.18 -268.99,178.18 14.45,0 1087,288.68 1244.1,339.58 127.79,40.36 228.68,84.07 228.68,97.54 0,315.39 -1268.91,-520.56 -1711.52,541.32 -36.98,80.72 -181.57,517.81 -322.77,971.76l-827.16 2938.79zm-1476.07 -2168.71c-40.36,178.23 -141.25,541.36 -225.27,810.35 -107.62,346.33 -144.6,497.66 -121.05,537.97 26.89,40.37 275.72,114.36 302.61,87.42 6.74,-3.34 77.34,-248.77 161.37,-544.7 164.75,-568.22 178.23,-716.21 84.07,-1059.14 -67.26,-242.09 -121.05,-195.05 -201.73,168.1z"/>
   </g>
   <g>
    <path class="fil1" d="M2186.53 13512.68c-43.71,-10.08 -63.87,20.21 -94.16,137.86 -211.72,-77.29 -1259.61,-617.21 -1398.77,-561.47 -20.16,6.68 -50.39,-43.72 -70.6,-114.36 -26.9,-94.15 -60.53,-137.86 -134.48,-161.37 -151.33,-57.17 -245.48,-117.7 -279.11,-181.56 -30.24,-57.18 -10.08,-144.6 211.86,-870.88 124.39,-406.84 215.19,-884.35 255.52,-1318.09 77.34,-847.32 322.81,-1687.92 712.85,-2474.72 147.94,-295.88 682.58,-1119.7 763.3,-1183.57 40.32,-26.95 53.8,-100.89 53.8,-292.54l0 -252.22 -184.97 -188.26c-539.27,-298.06 -2179.34,-937.72 -1918.16,-958.76 651.77,-52.54 2178.28,1061.92 2405.74,595.62 -30.28,10.08 -73.99,60.52 -104.23,114.3 -26.9,53.8 -70.61,97.5 -97.54,97.5 -87.42,0 -94.16,164.75 -20.17,420.32 80.68,275.72 87.43,467.37 30.24,659.01 -26.9,90.81 -57.13,131.13 -100.84,131.13 -37.03,0 -77.34,40.36 -100.89,90.8 -23.5,53.79 -134.47,238.71 -245.44,413.59 -114.31,174.83 -245.49,386.64 -292.54,470.72 -100.88,178.23 -339.63,780.11 -410.24,1042.37 -30.23,100.88 -87.42,306 -134.47,453.95 -43.71,147.93 -104.23,403.45 -131.12,571.6 -47.09,262.26 -47.09,309.35 -3.39,353.06 40.36,40.32 63.91,30.24 181.56,-100.89 195.05,-215.19 279.12,-379.95 403.51,-796.88 161.37,-531.29 299.22,-880.95 554.79,-1388.69 265.64,-534.62 302.62,-585.07 393.42,-534.62 104.24,53.79 127.74,6.73 232.01,-430.41 110.93,-490.91 289.15,-1143.21 336.2,-1254.17 26.95,-63.91 23.55,-90.8 -16.76,-121.05 -50.45,-33.63 -50.45,-50.44 0,-164.75 1825.17,-368.99 1440.66,-403.92 1487.02,-101.54 162.72,1061.55 1273.08,332.02 -347.16,1224.54l-97.54 104.24c230.44,175.3 302.1,286.78 232.01,470.72l-159.46 588.98 112.41 -575.51c-4.45,-137.35 -296.35,-349.71 -386.69,-349.71 -37.02,0 -195.04,181.61 -221.94,252.22 -50.44,134.47 -40.32,161.37 37.02,104.24 53.8,-37.03 94.11,-40.37 174.84,-13.47 381.07,117.98 365.46,289.28 289.15,564.87 -53.79,195.05 -97.49,383.34 -97.49,416.97 0,57.13 -20.21,60.53 -161.42,43.72 -1465.79,-171.13 -405.5,178.18 -268.99,178.18 14.45,0 1087,288.68 1244.1,339.58 127.79,40.36 228.68,84.07 228.68,97.54 0,315.39 -1268.91,-520.56 -1711.52,541.32 -36.98,80.72 -181.57,517.81 -322.77,971.76l-827.16 2938.79zm-1476.07 -2168.71c-40.36,178.23 -141.25,541.36 -225.27,810.35 -107.62,346.33 -144.6,497.66 -121.05,537.97 26.89,40.37 275.72,114.36 302.61,87.42 6.74,-3.34 77.34,-248.77 161.37,-544.7 164.75,-568.22 178.23,-716.21 84.07,-1059.14 -67.26,-242.09 -121.05,-195.05 -201.73,168.1z"/>
   </g>
   <path class="fil2" d="M9959.49 2263.83c-109.33,28.86 -209.63,50.95 -322.3,61.96 -122.1,11.96 -201.87,383.64 -324.17,347.57 -286.87,-84.57 -18.73,-1137 -215.41,-1323.48 -114.87,-108.93 -815.84,168.07 -1093.36,24.3 -108.26,-56.17 -7.01,-196.81 24.62,-270.67 104.51,-244.07 165.57,-487.9 52.45,-675.87 -533.54,-886.49 1295.89,-123.42 1620.32,-100.5 374.57,26.36 905.03,-110.84 1256.53,22.28 238.95,90.52 331.42,466.16 59.32,582.85 -806.38,345.88 -1410.73,-568.6 -1058,1331.56z"/>
   <path class="fil3" d="M8498.95 902.78l0 -32.23 902.45 0c-0.07,-529.04 -577.77,-705.89 -966.93,-354.54 -30.41,-140.07 144.02,-184.59 257.85,-208.93 223.77,-47.85 600.22,-51.72 754.1,151.69 129.89,171.73 40.13,428.96 -174.11,442.58l-322.14 1.43 -451.23 0z"/>
   <g>
    <path class="fil4" d="M11335.24 677.16l-32.23 32.24 32.23 -32.24 0 0zm-5930.43 0l-32.24 32.24 32.24 -32.24z"/>
   </g>
   <g>
    <path class="fil5" d="M11893.9 1010.2c14.33,14.33 -19.69,12.54 -21.47,10.77 -14.34,-14.35 19.7,-12.54 21.47,-10.77l0 0zm-1686.74 -10.74l-32.23 32.23 32.23 -32.23z"/>
   </g>
   <g>
    <path class="fil4" d="M11174.09 1515.15l-32.24 32.23 32.24 -32.23 0 0zm-7638.66 0l-32.23 32.23 32.23 -32.23z"/>
   </g>
   <g>
    <path class="fil4" d="M11141.85 1547.38l-32.23 32.23 32.23 -32.23 0 0zm805.77 32.23l-32.23 32.24 32.23 -32.24 0 0zm-838 0l-32.22 32.24 32.22 -32.24 0 0zm-7606.42 0l-32.23 32.24 32.23 -32.24z"/>
   </g>
   <g>
    <path class="fil4" d="M3460.24 1858.95c1.76,1.79 3.58,35.82 -10.78,21.48 -1.76,-1.78 -3.57,-35.82 10.78,-21.48l0 0zm7133.69 10.75l-32.23 32.22 32.23 -32.22z"/>
   </g>
   <g>
    <path class="fil4" d="M3825.51 2353.15l-32.23 32.23 32.23 -32.23 0 0zm7155.19 32.23l-32.23 32.23 32.23 -32.23z"/>
   </g>
   <g>
    <path class="fil4" d="M2428.85 2890.34c1.78,1.78 3.59,35.82 -10.76,21.46 -1.78,-1.77 -3.58,-35.81 10.76,-21.46l0 0zm-1729.72 -21.5l-32.23 32.23 32.23 -32.23 0 0zm9765.88 32.23l-32.23 32.23 32.23 -32.23z"/>
   </g>
   <g>
    <path class="fil5" d="M505.75 4254.75l-32.23 32.24 32.23 -32.24 0 0zm10217.1 32.24l-32.21 32.23 32.21 -32.23z"/>
   </g>
   <g>
    <path class="fil4" d="M666.9 4351.46l-32.22 32.23 32.22 -32.23 0 0zm10217.11 32.23l-32.23 32.22 32.23 -32.22z"/>
   </g>
   <g>
    <path class="fil4" d="M1053.67 4577.07l-32.22 32.22 32.22 -32.22 0 0zm10217.11 32.22l-32.23 32.23 32.23 -32.23z"/>
   </g>
   <g>
    <path class="fil4" d="M1118.14 4609.29l-32.23 32.23 32.23 -32.23 0 0zm10217.1 32.23l-32.23 32.23 32.23 -32.23z"/>
   </g>
   <g>
    <path class="fil6" d="M1311.52 4738.23l-32.23 32.23 32.23 -32.23 0 0zm10217.1 32.23l-32.23 32.22 32.23 -32.22z"/>
   </g>
   <g>
    <path class="fil4" d="M1408.22 4802.68l-32.24 32.23 32.24 -32.23 0 0zm10184.87 32.23l-32.24 32.23 32.24 -32.23z"/>
   </g>
   <g>
    <path class="fil4" d="M1923.9 5157.23l-32.24 32.22 32.24 -32.22 0 0zm9991.48 32.22l-32.23 32.23 32.23 -32.23 0 0zm-1117.34 10.73c14.35,14.35 -19.69,12.55 -21.46,10.77 -14.33,-14.33 19.7,-12.54 21.46,-10.77z"/>
   </g>
   <g>
    <path class="fil0" d="M7051.57 8379.78c476.62,590.93 2114.91,1252.24 -1002.15,299.6 93.46,-157.77 -160.35,-3908.09 -572.93,-4121.96 126.55,-79.6 830.97,-39.58 984.23,-39.94l590.86 3862.3zm-3902.91 -3186.98l0 136.21 -32.22 0c-32.41,-45.65 -32.53,-70.42 -64.47,-27.24l-32.22 0 0 -108.97 128.92 0z"/>
   </g>
   <path class="fil7" d="M9163.95 2436.33l6.89 -36.38c787.1,-220.12 2656.16,-1301.84 2656.16,-991.47 0,248.06 -1834.15,1527.82 -2108.11,2001.19 -259.74,492.25 2914.68,2457.7 1847.34,2190.87 -1048.39,-414.94 -1099.89,-568.68 -2402.28,-1077.4l0 -2086.81zm1631.56 -566.46c-101.93,64.79 -1350.45,735.45 -1203.47,830.96 63.05,40.1 1031.53,-553.01 1266.49,-776.53 160.47,-148.99 131.81,-177.65 -63.01,-54.43zm-845.29 2656.2c171.9,103.16 404.03,246.41 512.88,320.94 449.34,299.49 230.88,31.31 -78.62,-159.63 -134.66,-83.09 -336.85,-224.36 -462.92,-307.44 -696.62,-449.7 -329.77,-66.93 28.66,146.14z"/>
   <rect class="fil8" x="8887.4" y="2414.94" width="277.28" height="2100.62"/>
   <path class="fil9" d="M7375 2570.28l-2985.5 -8.75c-22.48,-0.08 136.96,215.29 328.58,414.99 100.7,104.93 210.34,205.62 307.16,268.33 62.82,40.73 118.39,62.62 164.74,62.62l2185.01 0c42.08,0 76.43,-34.32 76.43,-76.27l0 -584.64c0,-41.96 -34.35,-76.16 -76.43,-76.28z"/>
   <path class="fil10" d="M7395.2 3282.63l-2368.24 -38.37c-30.93,-0.54 337.53,239.96 704.24,1147.05 20.92,51.73 25.31,127.96 56.27,127.96l1607.73 0c30.95,0 56.23,-57.57 56.23,-127.96l0 -980.72c0,-70.39 -25.28,-127.43 -56.23,-127.96z"/>
   <rect class="fil8" x="7372.38" y="2254.04" width="1554.89" height="2422.43" rx="160.93" ry="33.09"/>
   <path class="fil7" d="M5107.18 146.2c70.19,157.89 239.95,652.36 257.57,725.23 85.93,351.69 -343.27,71.25 -481.42,-106l-169.06 -214.93 -352.44 0 -352.45 0c-784.45,1137.77 -1496.98,4139.49 -497.52,3727 749.67,-309.38 1556.04,-465.93 1818.2,-217.75 600.19,568.21 -161.03,2293.39 -355.22,2285.51 -522.85,-21.25 -5305.09,-1047.79 -4956.73,-1336.4 103.24,-85.54 1160.97,74.54 2284.6,118.83 994.68,39.19 -1691.17,-1313.04 -1719.28,-1437.68 -19.68,-87.13 113.99,-740.88 143.81,-860.01 21.29,-28.07 1283.67,-44.46 1309.4,-83.92 373.1,-572.21 1184.4,-2260.53 1491.52,-2599.88l1579 0z"/>
   <path class="fil1" d="M3258.34 2286.67c358.46,29.97 974.53,50.79 1258.81,244.23 1776.12,1208.43 2141.98,5153.85 1532.26,6174.61 -15.32,25.61 -53.2,-1803.36 -436.8,-3156.77 -246.61,-869.96 -890.77,-1427.16 -919.82,-1554.46 -39.63,-173.65 -1594.48,58.94 -1668.11,-194.16 -338.59,-1163.97 206.78,-1469.56 233.66,-1513.45z"/>
   <path class="fil0" d="M804.61 13532.93c33.62,0 63.88,23.53 63.88,50.44 0,33.62 -20.18,47.07 -53.8,33.62 -36.99,-16.81 -36.99,-3.36 10.09,47.08 57.16,63.88 57.16,77.33 -10.09,373.22 -40.34,171.49 -63.88,322.79 -53.8,339.6 10.09,16.82 0,63.89 -23.53,104.24 -20.18,43.71 -40.34,90.78 -43.71,110.97 0,16.81 -16.81,100.87 -33.63,184.93 -16.81,84.06 -26.9,161.4 -23.53,174.84 3.37,16.82 -10.08,26.9 -30.26,26.9 -20.18,0 -30.25,23.53 -16.81,50.44 10.09,26.9 3.37,50.44 -13.44,50.44 -16.82,0 -23.53,23.53 -13.45,50.44 23.53,60.53 -23.53,67.26 -80.7,10.09 -43.71,-43.71 -57.15,-107.6 -16.81,-84.06 16.81,10.09 30.26,-16.81 30.26,-53.8 13.44,-248.82 114.31,-561.52 178.21,-561.52 84.06,0 26.9,-124.41 -80.7,-181.57 -198.38,-107.6 -201.75,-117.68 -114.31,-494.28 70.61,-319.43 80.69,-336.24 151.31,-319.43 63.14,15.78 111.69,87.41 174.83,87.41z"/>
  </g>
 </g>
</svg>
